<svg width="37" height="32" xmlns="http://www.w3.org/2000/svg">
    <path d="M34.737 10.106h-3.719L25.842.562a1.094 1.094 0 0 0-1.46-.44 1.043 1.043 0 0 0-.45 1.427l4.64 8.557H8.224l4.64-8.557a1.043 1.043 0 0 0-.449-1.426 1.094 1.094 0 0 0-1.46.439l-5.177 9.544H2.065C.926 10.106 0 11.01 0 12.12v2.344c0 1.065.85 1.938 1.922 2.01l3.626 14.717c.117.474.552.808 1.051.808h23.597c.499 0 .933-.334 1.05-.808l3.635-14.717c1.071-.072 1.92-.946 1.92-2.01v-2.344c0-1.111-.925-2.015-2.064-2.015z" fill="#FFF" fill-rule="evenodd"/>
</svg>
