<svg xmlns="http://www.w3.org/2000/svg" width="37" height="32" viewBox="0 0 37 32">
    <g fill="none" fill-rule="evenodd">
        <g fill="#3C6">
            <g>
                <g>
                    <path d="M34.737 10.106h-3.719L25.842.562c-.279-.515-.933-.712-1.46-.44-.528.273-.73.912-.45 1.427l4.64 8.557H8.224l4.64-8.557c.28-.515.079-1.154-.449-1.426-.527-.273-1.181-.076-1.46.439l-5.177 9.544H2.065C.926 10.106 0 11.01 0 12.12v2.344c0 1.065.85 1.938 1.922 2.01l3.626 14.717c.117.474.552.808 1.051.808h23.597c.499 0 .933-.334 1.05-.808l3.635-14.717c1.071-.072 1.92-.946 1.92-2.01v-2.344c0-1.111-.925-2.015-2.064-2.015z" transform="translate(-575.000000, -169.000000) translate(340.000000, 150.000000) translate(235.000000, 19.000000)"/>
                </g>
            </g>
        </g>
    </g>
</svg>
