<svg width="10" height="10" viewBox="0 0 10 10" xmlns="http://www.w3.org/2000/svg">
    <defs>
        <filter color-interpolation-filters="auto" id="afyq6g6mia">
            <feColorMatrix in="SourceGraphic" values="0 0 0 0 0.200000 0 0 0 0 0.800000 0 0 0 0 0.400000 0 0 0 1.000000 0"/>
        </filter>
    </defs>
    <g filter="url(#afyq6g6mia)" fill="none" fill-rule="evenodd">
        <g fill="#000" fill-rule="nonzero">
            <path d="M9.224 3.704a.612.612 0 0 1-.291-.75l.02-.084a1.448 1.448 0 0 0-.937-1.833 1.323 1.323 0 0 0-.896 0l-.083.02c-.292.105-.604-.04-.75-.29-.396-.71-1.292-.98-2-.584-.25.125-.438.333-.583.583a.612.612 0 0 1-.75.292l-.084-.021a1.448 1.448 0 0 0-1.833.937 1.323 1.323 0 0 0 0 .896l.02.084c.105.291-.04.604-.29.75-.71.395-.98 1.291-.584 2 .125.25.333.437.583.583.27.146.396.458.292.75l-.021.083c-.25.771.167 1.584.937 1.834.292.104.605.104.896 0l.084-.021c.291-.104.604.041.75.291.395.709 1.291.98 2 .584.25-.125.437-.334.583-.584a.612.612 0 0 1 .75-.291l.083.02c.771.25 1.584-.166 1.834-.937a1.323 1.323 0 0 0 0-.896l-.021-.083c-.104-.292.041-.604.291-.75.709-.396.98-1.292.584-2-.125-.25-.334-.438-.584-.583zM8.83 5.558a1.43 1.43 0 0 0-.688 1.729l.02.083a.633.633 0 0 1-.416.792.578.578 0 0 1-.375 0l-.083-.02a1.479 1.479 0 0 0-1.73.687.626.626 0 0 1-1.103 0 1.45 1.45 0 0 0-1.292-.771c-.146 0-.292.02-.438.062l-.083.021a.633.633 0 0 1-.792-.417.578.578 0 0 1 0-.375l.021-.062a1.479 1.479 0 0 0-.687-1.73.626.626 0 0 1 0-1.103 1.479 1.479 0 0 0 .687-1.73l-.02-.083a.633.633 0 0 1 .416-.792.578.578 0 0 1 .375 0l.083.021a1.479 1.479 0 0 0 1.73-.687.626.626 0 0 1 1.104 0 1.465 1.465 0 0 0 1.729.708l.083-.02a.633.633 0 0 1 .792.416.578.578 0 0 1 0 .375l-.02.042a1.479 1.479 0 0 0 .687 1.729.626.626 0 0 1 .25.854.456.456 0 0 1-.25.27z"/>
            <path d="M6.537 3.454a.403.403 0 0 0-.583 0l-2.5 2.5a.423.423 0 0 0-.042.583.423.423 0 0 0 .583.042c.021-.021.042-.021.042-.042l2.5-2.5a.403.403 0 0 0 0-.583zM4.162 3.954a.614.614 0 0 0-.625-.625.614.614 0 0 0-.625.625c0 .354.27.625.625.625.354 0 .625-.271.625-.625zM6.454 5.412a.614.614 0 0 0-.625.625c0 .354.27.625.625.625.354 0 .625-.27.625-.625a.614.614 0 0 0-.625-.625z"/>
        </g>
    </g>
</svg>
