<svg xmlns="http://www.w3.org/2000/svg" width="18" height="18" viewBox="0 0 18 18">
    <g fill="none" fill-rule="evenodd">
        <g fill="#3C6">
            <g>
                <g>
                    <g>
                        <g>
                            <path d="M17.217 11c.329 0 .61.202.726.49l.004.01c.036.09.053.188.053.284v4.694c0 .432-.35.783-.783.783-.432 0-.782-.35-.782-.783v-2.886l-2.295 2.156c-1.9 1.9-4.642 2.694-7.263 2.1-2.62-.592-4.754-2.489-5.65-5.022-.145-.407.069-.854.476-.999.408-.144.855.07 1 .477.716 2.027 2.423 3.544 4.52 4.018 2.096.474 4.29-.16 5.827-1.698l2.192-2.059h-2.72c-.432 0-.783-.35-.783-.782 0-.433.35-.783.783-.783h4.695zM11.304.193c2.621.593 4.755 2.49 5.651 5.022.144.408-.07.855-.477 1-.407.144-.854-.07-.999-.477-.717-2.027-2.423-3.544-4.52-4.018-2.097-.475-4.29.16-5.828 1.697L2.94 5.477h2.72c.432 0 .782.35.782.782 0 .432-.35.783-.782.783H.964c-.328 0-.61-.203-.726-.49l-.004-.01C.2 6.452.181 6.355.182 6.258V1.564c0-.433.35-.783.782-.783.432 0 .783.35.783.783V4.45l2.295-2.156c1.9-1.9 4.641-2.694 7.262-2.1z" transform="translate(-626.000000, -227.000000) translate(340.000000, 150.000000) translate(0.000000, 70.000000) translate(165.000000, 6.000000) translate(121.000000, 1.000000) translate(9.090764, 9.020886) scale(-1, 1) translate(-9.090764, -9.020886)"/>
                        </g>
                    </g>
                </g>
            </g>
        </g>
    </g>
</svg>
