<svg xmlns="http://www.w3.org/2000/svg" width="18" height="18" viewBox="0 0 18 18">
    <g fill="none" fill-rule="evenodd">
        <g fill="#3C6">
            <g>
                <g>
                    <g>
                        <g>
                            <path d="M10.818 0c1.356 0 2.455 1.099 2.455 2.455l-.001.817h3.273c.418 0 .762.313.812.716l.007.103c0 .452-.367.818-.819.818h-.818v10.636c0 1.302-1.013 2.367-2.293 2.45l-.161.005H5.09c-1.356 0-2.455-1.099-2.455-2.455V4.91h-.818c-.417 0-.761-.312-.812-.715L1 4.09c0-.452.366-.818.818-.818l3.272-.001v-.817c0-1.302 1.014-2.367 2.294-2.45L7.545 0zm3.272 4.909H4.272v10.636c0 .418.313.762.716.812l.103.007h8.182c.452 0 .818-.367.818-.819L14.09 4.91zM7.545 7.364c.452 0 .819.366.819.818v4.909c0 .452-.367.818-.819.818-.451 0-.818-.366-.818-.818V8.18c0-.451.367-.817.818-.817zm3.273 0c.452 0 .818.366.818.818v4.909c0 .452-.366.818-.818.818-.452 0-.818-.366-.818-.818V8.18c0-.451.366-.817.818-.817zm0-5.728H7.545c-.451 0-.818.367-.818.819v.817h4.909v-.817c0-.418-.312-.762-.715-.812l-.103-.007z" transform="translate(-420.000000, -227.000000) translate(340.000000, 150.000000) translate(0.000000, 70.000000) translate(16.000000, 6.000000) translate(64.000002, 1.000000)"/>
                        </g>
                    </g>
                </g>
            </g>
        </g>
    </g>
</svg>
