<svg xmlns="http://www.w3.org/2000/svg" width="16" height="16" viewBox="0 0 16 16">
    <g fill="none" fill-rule="evenodd">
        <g fill="#3C6">
            <g>
                <g>
                    <g>
                        <g>
                            <g>
                                <path d="M5.182 4.364C5.182 1.954 7.135 0 9.545 0h2.182c.402 0 .728.326.728.727v2.91c0 .401-.326.727-.728.727H9.545v1.454h2.182c.473 0 .82.445.706.904l-.727 2.909c-.081.324-.372.55-.706.55H9.545v5.092c0 .401-.325.727-.727.727H5.91c-.402 0-.727-.326-.727-.727v-5.091H3.727c-.401 0-.727-.326-.727-.727v-2.91c0-.401.326-.727.727-.727h1.455V4.364zM11 1.454H9.545c-1.606 0-2.909 1.303-2.909 2.91v2.181c0 .402-.325.728-.727.728H4.455v1.454h1.454c.402 0 .727.326.727.728v5.09h1.455v-5.09c0-.402.326-.728.727-.728h1.614l.364-1.454H8.818c-.401 0-.727-.326-.727-.728V4.364c0-.804.651-1.455 1.454-1.455H11V1.455z" transform="translate(-996.000000, -1447.000000) translate(0.000000, 1254.000000) translate(0.000000, 32.000000) translate(820.000000, 63.000000) translate(0.000000, 96.000000) translate(176.000000, 2.000000)"/>
                            </g>
                        </g>
                    </g>
                </g>
            </g>
        </g>
    </g>
</svg>
