<svg xmlns="http://www.w3.org/2000/svg" xmlns:xlink="http://www.w3.org/1999/xlink" width="16" height="16" viewBox="0 0 16 16">
    <defs>
        <path id="dtrgjdux1a" d="M14.538 11.617c.009-.389-.261-.707-.622-.758-.757-.1-1.5-.284-2.216-.551-.267-.1-.568-.036-.768.161l-.929.927c-.232.232-.592.28-.878.118-1.944-1.103-3.554-2.71-4.66-4.652-.162-.285-.114-.644.119-.876l.925-.924c.201-.203.265-.503.164-.772-.267-.713-.452-1.455-.55-2.203-.052-.363-.364-.631-.739-.627H2.192c-.205 0-.4.086-.539.237-.138.152-.207.354-.19.547.229 2.141.959 4.199 2.135 6.012 1.065 1.672 2.485 3.09 4.167 4.157 1.802 1.167 3.853 1.895 5.976 2.126.205.018.408-.05.56-.19.151-.138.237-.335.237-.543v-2.19zM16 13.803c.002.616-.256 1.205-.71 1.622-.456.417-1.066.623-1.694.566-2.363-.257-4.633-1.063-6.621-2.35-1.857-1.178-3.431-2.75-4.608-4.597C1.07 7.044.262 4.767.01 2.386c-.055-.612.15-1.219.564-1.673C.988.26 1.575.001 2.192 0h2.185c1.1-.01 2.04.795 2.194 1.89.085.646.244 1.28.471 1.889.302.8.109 1.701-.496 2.312l-.524.523c.86 1.346 2.004 2.488 3.352 3.346l.527-.526c.609-.6 1.512-.793 2.312-.493.611.228 1.247.386 1.9.472 1.1.155 1.91 1.105 1.887 2.212v2.178z" fill="#3C6"/>
    </defs>
    <g fill="none" fill-rule="evenodd">
        <g>
            <use fill="#000" xlink:href="#dtrgjdux1a"/>
        </g>
    </g>
</svg>
