<svg xmlns="http://www.w3.org/2000/svg" xmlns:xlink="http://www.w3.org/1999/xlink" width="16" height="16" viewBox="0 0 16 16">
    <defs>
        <path id="jrg0vvsc9a" d="M0 3.641v-.01.036C0 2.473.98 1.5 2.182 1.5h11.636C15.02 1.5 16 2.473 16 3.667v8.666c0 1.194-.98 2.167-2.182 2.167H2.182C.98 14.5 0 13.527 0 12.333zm14.545 1.412l-6.128 4.26c-.25.175-.584.175-.834 0l-6.129-4.26v7.28c0 .396.33.723.728.723h11.636c.399 0 .727-.327.727-.723v-7.28zm-.727-2.109H2.182c-.282 0-.53.164-.65.4L8 7.841l6.468-4.497c-.12-.236-.368-.4-.65-.4z" fill="#3C6"/>
    </defs>
    <g fill="none" fill-rule="evenodd">
        <g>
            <use fill="#000" xlink:href="#jrg0vvsc9a"/>
        </g>
    </g>
</svg>
