<svg width="16" height="16" viewBox="0 0 16 16" xmlns="http://www.w3.org/2000/svg">
    <path d="M8 1.35c-2.673 0-4.84 2.113-4.84 4.725 0 1.91.872 3.766 1.952 5.312 1.049 1.512 2.252 2.672 2.888 3.24.636-.568 1.839-1.728 2.888-3.24 1.08-1.546 1.952-3.402 1.952-5.312 0-2.612-2.167-4.725-4.84-4.725zM1.778 6.075C1.778 2.72 4.563 0 8 0c3.437 0 6.222 2.72 6.222 6.075 0 2.295-1.038 4.414-2.19 6.074-1.159 1.66-2.48 2.923-3.147 3.517a1.339 1.339 0 0 1-1.77 0c-.668-.594-1.988-1.856-3.147-3.517-1.152-1.66-2.19-3.78-2.19-6.074zM8 4.725c-.763 0-1.383.607-1.383 1.35 0 .742.62 1.35 1.383 1.35s1.383-.608 1.383-1.35c0-.743-.62-1.35-1.383-1.35zm-2.765 1.35c0-1.492 1.238-2.7 2.765-2.7 1.527 0 2.765 1.208 2.765 2.7 0 1.491-1.238 2.7-2.765 2.7-1.527 0-2.765-1.209-2.765-2.7z" fill="#3C6" fill-rule="evenodd"/>
</svg>
