<svg width="33" height="32" xmlns="http://www.w3.org/2000/svg">
    <defs>
        <filter color-interpolation-filters="auto" id="a">
            <feColorMatrix in="SourceGraphic" values="0 0 0 0 0.200000 0 0 0 0 0.800000 0 0 0 0 0.400000 0 0 0 1.000000 0"/>
        </filter>
    </defs>
    <g transform="translate(.5)" filter="url(#a)" fill="none" fill-rule="evenodd">
        <g fill="#000" fill-rule="nonzero">
            <path d="M32 5.856H3.788v3.787H0v17.519h28.212v-3.788H32V5.856zM1.575 11.218h2.888l-.057.2a3.76 3.76 0 0 1-2.631 2.638l-.2.056v-2.894zm0 14.363v-2.888l.2.056a3.78 3.78 0 0 1 2.637 2.638l.057.2H1.575v-.006zm25.063 0H23.75l.056-.2a3.78 3.78 0 0 1 2.638-2.638l.2-.056v2.894h-.006zm0-4.488-.132.025a5.351 5.351 0 0 0-4.337 4.338l-.025.13H6.069l-.025-.13a5.351 5.351 0 0 0-4.338-4.338l-.131-.025v-5.381l.131-.025a5.351 5.351 0 0 0 4.338-4.338l.025-.13H22.15l.025.13a5.351 5.351 0 0 0 4.337 4.338l.132.025v5.381h-.006zm0-6.987-.2-.057a3.78 3.78 0 0 1-2.638-2.637l-.056-.2h2.887v2.894h.006zm3.787 7.687h-2.206V9.643H5.362V7.437H30.42v14.356h.006z"/>
            <path d="M14.294 14.5c-.063 0-.125-.007-.188-.007a3.887 3.887 0 0 0-2.694 1.081A3.872 3.872 0 0 0 10.2 18.4c0 2.15 1.75 3.907 3.906 3.907a3.872 3.872 0 0 0 2.825-1.213 3.874 3.874 0 0 0 1.075-2.881c-.093-1.988-1.725-3.619-3.712-3.713zm2.131 4.068a2.334 2.334 0 0 1-2.156 2.156c-.056.007-.113.007-.169.007a2.337 2.337 0 0 1-2.325-2.325A2.329 2.329 0 0 1 14.1 16.08c.644 0 1.263.268 1.7.743.45.47.675 1.088.625 1.744zM20.613 17.612h2.781v1.575h-2.781zM4.819 17.612H7.6v1.575H4.819z"/>
        </g>
    </g>
</svg>
