<?xml version="1.0" encoding="UTF-8"?>
<svg width="21px" height="20px" viewBox="0 0 21 20" version="1.1" xmlns="http://www.w3.org/2000/svg" xmlns:xlink="http://www.w3.org/1999/xlink">
    <title>E06DED2B-AF80-4C61-A9FA-4D5647F4C451</title>
    <defs>
        <filter color-interpolation-filters="auto" id="filter-1">
            <feColorMatrix in="SourceGraphic" type="matrix" values="0 0 0 0 1.000000 0 0 0 0 1.000000 0 0 0 0 1.000000 0 0 0 1.000000 0"></feColorMatrix>
        </filter>
    </defs>
    <g id="Checkout" stroke="none" stroke-width="1" fill="none" fill-rule="evenodd" opacity="0.4">
        <g id="Checkout---Step-3---Payment---new-user-(coupon-entered)" transform="translate(-1041.000000, -811.000000)">
            <g id="Right-screen" transform="translate(742.000000, 200.000000)">
                <g id="Group-5" transform="translate(44.000000, 42.000000)">
                    <g id="Button/CTA/safe-place-order/disabled" transform="translate(0.000000, 556.000000)">
                        <g id="Group-6" transform="translate(60.550987, 12.000000)">
                            <g id="security" transform="translate(195.000000, 1.000000)" filter="url(#filter-1)">
                                <g transform="translate(1.666667, 0.000000)">
                                    <path d="M16.645274,5.13215116 C16.6350914,4.59401163 16.6253716,4.08563954 16.6253716,3.59382558 C16.6253716,3.20852326 16.3146165,2.89615116 15.9311018,2.89615116 C12.9619412,2.89615116 10.7013061,2.03866279 8.81696525,0.197546513 C8.54740342,-0.0658953473 8.11843724,-0.065802324 7.84896798,0.197546513 C5.96481226,2.03866279 3.70454743,2.89615116 0.735571969,2.89615116 C0.35214989,2.89615116 0.0413021489,3.20852326 0.0413021489,3.59382558 C0.0413021489,4.08573256 0.0316749407,4.5942907 0.0213997474,5.13252326 C-0.0737615027,10.1405233 -0.20409909,16.9992209 8.1055701,19.8936395 C8.17925528,19.919314 8.2560878,19.9321512 8.33292033,19.9321512 C8.40975286,19.9321512 8.48667795,19.919314 8.56027055,19.8936395 C16.8705877,16.9991279 16.7404353,10.1402442 16.645274,5.13215116 Z M8.3330129,18.4941047 C1.20637948,15.8925233 1.31413015,10.1934535 1.40975425,5.15912791 C1.41549355,4.85698837 1.42104771,4.56415116 1.42493562,4.2770814 C4.20571767,4.15912791 6.42941762,3.31233721 8.3330129,1.64591861 C10.2367933,3.31233721 12.4608635,4.15922093 15.2418307,4.2770814 C15.2457186,4.56405814 15.2512728,4.8567093 15.2570121,5.15866279 C15.3525436,10.1931744 15.4602017,15.8924302 8.3330129,18.4941047 Z" id="Shape" fill="#000000" fill-rule="nonzero"></path>
                                    <path d="M10.7867907,7.54251163 L7.41944186,10.9096744 L5.98251163,9.47274419 C5.71004651,9.20037209 5.26827907,9.20037209 4.99590698,9.47274419 C4.72344186,9.74530233 4.72344186,10.1869767 4.99590698,10.4594419 L6.92613953,12.3896744 C7.06232558,12.5258605 7.24093023,12.5939535 7.41944186,12.5939535 C7.59795349,12.5939535 7.77655814,12.5258605 7.91274419,12.3896744 L11.7733023,8.5292093 C12.0458605,8.25674419 12.0458605,7.81497674 11.7733953,7.54260465 C11.5010233,7.27013953 11.0592558,7.27004651 10.7867907,7.54251163 Z" id="Path" fill="#000000" fill-rule="nonzero"></path>
                                </g>
                            </g>
                        </g>
                    </g>
                </g>
            </g>
        </g>
    </g>
</svg>