<svg width="33" height="32" xmlns="http://www.w3.org/2000/svg">
    <defs>
        <filter color-interpolation-filters="auto" id="a">
            <feColorMatrix in="SourceGraphic" values="0 0 0 0 1.000000 0 0 0 0 1.000000 0 0 0 0 1.000000 0 0 0 1.000000 0"/>
        </filter>
    </defs>
    <g transform="translate(.5)" filter="url(#a)" fill="none" fill-rule="evenodd">
        <g fill="#000" fill-rule="nonzero">
            <path d="M32 10.568v-1.33c0-.904-.351-1.75-.991-2.39a3.355 3.355 0 0 0-2.391-.992H3.382A3.397 3.397 0 0 0 0 9.244v14.613a3.387 3.387 0 0 0 3.382 3.382h25.236A3.387 3.387 0 0 0 32 23.857V10.568zm-1.456 13.283a1.933 1.933 0 0 1-1.932 1.933H3.382a1.933 1.933 0 0 1-1.933-1.933v-9.71h29.095v9.71zM3.382 7.311h25.236c1.067 0 1.933.866 1.933 1.933v1.464H1.456V9.244c0-1.067.866-1.932 1.926-1.932z"/>
            <path d="M4.712 20.234h7.969a.728.728 0 0 0 0-1.456H4.712a.728.728 0 0 0 0 1.456zM4.712 22.888h7.969a.728.728 0 0 0 0-1.455H4.712a.728.728 0 0 0 0 1.455zM24.634 22.888h1.33a2.053 2.053 0 0 0 2.052-2.051v-1.33a2.053 2.053 0 0 0-2.052-2.052h-1.33a2.053 2.053 0 0 0-2.052 2.051v1.33a2.049 2.049 0 0 0 2.052 2.052zm1.926-2.051c0 .332-.27.602-.602.602h-1.33a.603.603 0 0 1-.603-.602v-1.33c0-.333.27-.603.602-.603h1.33c.333 0 .603.27.603.602v1.33z"/>
        </g>
    </g>
</svg>
