<?xml version="1.0" encoding="UTF-8"?>
<svg width="26px" height="26px" viewBox="0 0 26 26" version="1.1" xmlns="http://www.w3.org/2000/svg" xmlns:xlink="http://www.w3.org/1999/xlink">
    <title>F98615BC-4B63-49BF-A802-B513553664EC</title>
    <g id="Checkout" stroke="none" stroke-width="1" fill="none" fill-rule="evenodd">
        <g id="Checkout---Step-3---Payment---new-user-(coupon-entered)" transform="translate(-1033.000000, -336.000000)" fill="#33CC66">
            <g id="Right-screen" transform="translate(742.000000, 200.000000)">
                <g id="Group-5" transform="translate(44.000000, 42.000000)">
                    <g id="Group-3" transform="translate(0.000000, 80.000000)">
                        <g id="Button/payment-method/cycle/inactive" transform="translate(180.000000, 0.000000)">
                            <g id="Group-2" transform="translate(29.000000, 14.000000)">
                                <g id="icon/cycle" transform="translate(38.000000, -0.000000)">
                                    <path d="M26,10.4225378 L26,10.4225378 L26,2.95315153 C26,2.50498836 25.5518368,2.05682518 25.1036737,2.05682518 L24.9542859,2.05682518 C24.5061228,2.05682518 24.2073473,2.50498836 24.2073473,2.95315153 L24.2073473,8.33110961 L20.024491,4.29764105 C17.9330629,2.05682518 14.7959207,1.01111111 11.8081662,1.01111111 C9.86612576,1.01111111 7.92408534,1.45927428 6.13143265,2.50498836 C1.50041319,5.04457967 -0.889790403,10.4225378 0.305311393,15.5017204 C1.50041319,20.580903 5.98204492,24.4649839 11.2106153,24.7637593 C16.4391856,25.0625347 21.3689805,21.7760048 23.0122455,16.8462099 C23.0122455,16.6968222 23.0122455,16.3980467 23.0122455,16.248659 C23.0122455,16.0992713 22.7134701,15.9498836 22.5640823,15.8004958 C22.4146946,15.8004958 22.1159192,15.8004958 21.9665314,15.8004958 C21.8171437,15.9498836 21.667756,16.0992713 21.5183683,16.248659 C20.024491,20.4315153 15.8416347,23.2698821 11.360003,22.9711066 C6.87837127,22.6723312 2.99429043,19.5351889 2.09796409,15.0535572 C1.05225002,10.7213132 3.14367816,6.09029374 7.02775899,3.84947788 L7.32653444,3.70009015 C11.2106153,1.75804973 15.9910225,2.50498836 18.978777,5.64213057 L23.0122455,9.52621141 L17.7836752,9.52621141 C17.335512,9.52621141 16.8873488,9.97437458 16.8873488,10.4225378 C16.8873488,10.8707009 17.335512,11.3188641 17.7836752,11.3188641 L25.2530614,11.3188641 C25.2530614,11.3188641 25.2530614,11.3188641 25.2530614,11.3188641 L25.4024491,11.3188641 L25.5518368,11.3188641 L25.7012246,11.3188641 L25.8506123,11.1694764 L25.8506123,11.1694764 L25.8506123,11.1694764 C26,10.7213132 26,10.7213132 26,10.4225378 L26,10.4225378 Z" id="Path"></path>
                                </g>
                            </g>
                        </g>
                    </g>
                </g>
            </g>
        </g>
    </g>
</svg>