<svg width="34" height="34" xmlns="http://www.w3.org/2000/svg">
    <defs>
        <filter color-interpolation-filters="auto" id="a">
            <feColorMatrix in="SourceGraphic" values="0 0 0 0 0.000000 0 0 0 0 0.325490 0 0 0 0 0.313725 0 0 0 1.000000 0"/>
        </filter>
    </defs>
    <g filter="url(#a)" fill="none" fill-rule="evenodd">
        <g fill="#000" fill-rule="nonzero">
            <path d="M31.13 8.725c-.017-.915-.034-1.78-.034-2.615 0-.656-.528-1.187-1.18-1.187-5.047 0-8.89-1.457-12.094-4.587a1.176 1.176 0 0 0-1.645 0C12.974 3.466 9.13 4.923 4.084 4.923c-.652 0-1.18.531-1.18 1.187 0 .836-.017 1.7-.034 2.615C2.708 17.24 2.486 28.9 16.613 33.82a1.174 1.174 0 0 0 .773 0C31.513 28.9 31.292 17.24 31.13 8.725zM17 31.44C4.883 27.017 5.066 17.329 5.23 8.77c.01-.513.02-1.01.026-1.499 4.727-.2 8.507-1.64 11.743-4.473 3.237 2.833 7.018 4.273 11.745 4.473.007.488.016.985.026 1.499.163 8.558.346 18.247-11.77 22.67z"/>
            <path d="m21.17 12.822-5.724 5.724-2.442-2.442a1.186 1.186 0 0 0-1.678 1.677l3.282 3.281a1.182 1.182 0 0 0 1.677 0l6.563-6.562a1.186 1.186 0 1 0-1.677-1.678z"/>
        </g>
    </g>
</svg>
