<svg width="32" height="32" viewBox="0 0 32 32" xmlns="http://www.w3.org/2000/svg">
    <path d="M27.314 4.686A15.89 15.89 0 0 0 16 0 15.89 15.89 0 0 0 4.686 4.686 15.89 15.89 0 0 0 0 16a15.89 15.89 0 0 0 4.686 11.314A15.89 15.89 0 0 0 16 32a15.89 15.89 0 0 0 11.314-4.686A15.89 15.89 0 0 0 32 16a15.89 15.89 0 0 0-4.686-11.314zm-3.13 23.26A14.37 14.37 0 0 1 16 30.482c-2.934 0-5.761-.879-8.183-2.536l-.102-.07.02-.12a8.36 8.36 0 0 1 8.259-6.93 8.36 8.36 0 0 1 8.259 6.93l.019.12-.089.07zM10.661 13.97A5.347 5.347 0 0 1 16 8.632a5.347 5.347 0 0 1 5.338 5.338A5.347 5.347 0 0 1 16 19.308a5.347 5.347 0 0 1-5.338-5.338zm15.185 12.642-.228.209-.082-.298a9.954 9.954 0 0 0-2.89-4.66 9.929 9.929 0 0 0-2.878-1.816l-.335-.139.304-.196a6.842 6.842 0 0 0 3.117-5.748A6.86 6.86 0 0 0 16 7.108a6.86 6.86 0 0 0-6.855 6.856 6.85 6.85 0 0 0 3.117 5.748l.304.196-.335.14a9.893 9.893 0 0 0-5.768 6.476l-.082.297-.228-.21a14.487 14.487 0 0 1-3.39-4.723A14.366 14.366 0 0 1 1.519 16C1.518 8.013 8.013 1.518 16 1.518c7.987 0 14.482 6.495 14.482 14.482a14.22 14.22 0 0 1-1.252 5.881 14.402 14.402 0 0 1-3.383 4.73z" fill="#FFF" fill-rule="evenodd"/>
</svg>
