<?xml version="1.0" encoding="UTF-8"?>
<svg width="16px" height="16px" viewBox="0 0 16 16" version="1.1" xmlns="http://www.w3.org/2000/svg" xmlns:xlink="http://www.w3.org/1999/xlink">
    <title>B085BA33-CF7D-40E1-8581-FB0BD3803C86</title>
    <g id="Store" stroke="none" stroke-width="1" fill="none" fill-rule="evenodd">
        <g id="HP-" transform="translate(-1380.000000, -194.000000)" fill="#FFFFFF">
            <g id="Store" transform="translate(1097.000000, 90.000000)">
                <g id="Text" transform="translate(0.000000, 38.000000)">
                    <g id="Address" transform="translate(2.000000, 64.000000)">
                        <g id="icon/location-2" transform="translate(281.000000, 2.000000)">
                            <path d="M8.00000004,0 C11.6818984,0 14.6666667,2.98476829 14.6666667,6.6666666 C14.6666667,8.91440302 13.4650657,11.1173383 11.4839685,13.2084964 C10.8046681,13.9255357 10.0788354,14.5787852 9.35278457,15.1569368 C9.09826576,15.3596091 8.86144917,15.5387396 8.64813958,15.6927966 C8.51814939,15.7866784 8.42343029,15.8522801 8.36980017,15.8880335 C8.14586723,16.0373222 7.85413285,16.0373222 7.6301999,15.8880335 C7.60338484,15.8701568 7.56629754,15.844818 7.51966522,15.8122132 L7.3518605,15.6927966 L7.3518605,15.6927966 C7.13855091,15.5387396 6.90173432,15.3596091 6.64721551,15.1569368 C5.92116468,14.5787852 5.19533196,13.9255357 4.51603156,13.2084964 C2.53493439,11.1173383 1.33333333,8.91440302 1.33333333,6.6666666 C1.33333333,2.98476829 4.31810172,0 8.00000004,0 Z M8.00000004,1.33333334 C5.05448139,1.33333334 2.66666667,3.72114797 2.66666667,6.66666661 C2.66666667,8.50226356 3.71506563,10.4243283 5.48396848,12.2915035 C6.11716809,12.9598809 6.79758538,13.5722565 7.47778456,14.1138966 C7.66344742,14.2617392 7.83845901,14.3957402 8.00000004,14.5150779 C8.16154106,14.3957402 8.33655265,14.2617392 8.52221552,14.1138966 C9.2024147,13.5722565 9.88283198,12.9598809 10.5160316,12.2915035 C12.2849344,10.4243283 13.3333334,8.50226356 13.3333334,6.66666661 C13.3333334,3.72114797 10.9455187,1.33333334 8.00000004,1.33333334 Z M8.00000004,3.99999993 C9.47275938,3.99999993 10.6666667,5.19390727 10.6666667,6.66666661 C10.6666667,8.13942596 9.47275938,9.3333333 8.00000004,9.3333333 C6.5272407,9.3333333 5.33333336,8.13942596 5.33333336,6.66666661 C5.33333336,5.19390727 6.5272407,3.99999993 8.00000004,3.99999993 Z M8.00000004,5.33333327 C7.26362037,5.33333327 6.6666667,5.93028694 6.6666667,6.66666661 C6.6666667,7.40304629 7.26362037,7.99999996 8.00000004,7.99999996 C8.73637971,7.99999996 9.33333338,7.40304629 9.33333338,6.66666661 C9.33333338,5.93028694 8.73637971,5.33333327 8.00000004,5.33333327 Z" id="Combined-Shape"></path>
                        </g>
                    </g>
                </g>
            </g>
        </g>
    </g>
</svg>