<?xml version="1.0" encoding="UTF-8"?>
<svg width="16px" height="16px" viewBox="0 0 16 16" version="1.1" xmlns="http://www.w3.org/2000/svg" xmlns:xlink="http://www.w3.org/1999/xlink">
    <title>DFA992F5-486F-4A20-8C73-8A02003ECA51</title>
    <g id="Store" stroke="none" stroke-width="1" fill="none" fill-rule="evenodd">
        <g id="HP-" transform="translate(-1080.000000, -32.000000)" fill="#FFFFFF">
            <g id="Search-bar/default" transform="translate(810.000000, 24.000000)">
                <g id="icon/search" transform="translate(270.000000, 8.000000)">
                    <path d="M7.33333333,0 C11.1993266,0 14.3333333,3.13400675 14.3333333,7 C14.3333333,8.82267914 13.6367097,10.4826531 12.4951862,11.7281983 L15.4388608,14.6722503 C15.7426019,14.9759914 15.7426019,15.468453 15.4388608,15.7721942 C15.1584844,16.0525706 14.7173047,16.074138 14.4121893,15.8368964 L14.3389169,15.7721942 L11.3206372,12.7541458 C10.189213,13.5396383 8.81503478,14 7.33333333,14 C3.46734008,14 0.333333333,10.8659932 0.333333333,7 C0.333333333,3.13400675 3.46734008,0 7.33333333,0 Z M7.33333333,1.55555556 C4.3264497,1.55555556 1.88888889,3.99311636 1.88888889,7 C1.88888889,10.0068836 4.3264497,12.4444444 7.33333333,12.4444444 C10.340217,12.4444444 12.7777778,10.0068836 12.7777778,7 C12.7777778,3.99311636 10.340217,1.55555556 7.33333333,1.55555556 Z" id="Icon"></path>
                </g>
            </g>
        </g>
    </g>
</svg>