<svg width="32" height="32" xmlns="http://www.w3.org/2000/svg">
    <g fill="none" fill-rule="evenodd">
        <circle stroke="#FFF" stroke-width="1.5" cx="16" cy="16" r="16"/>
        <path d="m19.345 21.372-.028-.168h-5.039l-.028.168c-.196 1.35-1.455 2.277-2.799 2.108-1.092-.14-1.932-1.012-2.1-2.108l-.028-.168H7.56a.563.563 0 0 1-.56-.562V9.062c0-.31.252-.562.56-.562h11.533c.308 0 .56.253.56.562v4.047h2.492a.55.55 0 0 1 .476.253l2.295 3.485a.568.568 0 0 1 .084.31v3.456c0 .31-.252.563-.56.563h-.224l-.028.168c-.196 1.35-1.428 2.277-2.8 2.108-1.035-.14-1.903-1.012-2.043-2.08zm-8.51.59c.196.197.476.338.756.394v.028h.196a1.341 1.341 0 0 0 1.344-1.35c0-.364-.14-.702-.392-.983a1.33 1.33 0 0 0-.952-.393 1.38 1.38 0 0 0-1.344 1.068c-.028.084-.028.197-.028.28.028.366.168.704.42.957zm7.698-12.338H8.148v2.726h5.57a.563.563 0 0 1 0 1.125h-5.57v6.576h1.371l.056-.112c.028-.028.028-.056.056-.084v-.057c.028-.028.028-.056.028-.084 0-.028 0-.028.028-.056.056-.084.14-.169.196-.253.028-.028.028-.028.028-.056.084-.085.168-.169.28-.253l.084-.056c.084-.057.14-.113.224-.17l.112-.055c.084-.028.14-.085.224-.113.056-.028.084-.028.14-.056l.252-.084.168.028c.252-.056.532-.056.784 0l.112.028.252.084h.084c.028.028.056.028.084.028.084.029.14.057.224.113l.14.056.252.169.084.056c.196.169.363.365.503.59l.084.14c.028.029.028.057.056.085l.028.14h4.451V9.624zm4.927 9.556c.028.056.056.056.084.084l.364.366V17.325l-2.043-3.063h-2.212v5.396l.364-.365.028-.029.056-.056c.084-.056.14-.14.224-.197l.168-.112c.084-.056.168-.084.252-.112.056-.028.084-.057.112-.057.028 0 .028-.028.056-.028.084-.028.196-.056.28-.084l.056-.028c.028 0 .056-.028.084-.028.168-.028.308-.056.476-.056.168 0 .308.028.476.056h.084c.028 0 .056.028.084.028.112.028.196.056.28.084l.167.085c.084.056.168.084.252.14 0 .056.056.084.112.112.056.057.14.113.196.17zm-1.903 3.204h.224c.756 0 1.371-.618 1.371-1.377 0-.084 0-.197-.028-.281-.084-.365-.28-.675-.587-.871-.308-.197-.672-.281-1.008-.197a1.384 1.384 0 0 0-1.064 1.068c-.028.084-.028.197-.028.28-.028.675.476 1.238 1.12 1.378z" fill="#FFF"/>
    </g>
</svg>
